# xmcd
#
# Track frame offsets: 
#        179
#        11046
#        23296
#        36263
#        41867
#        53378
#        66620
#        68963
#        85997
#        89763
#        106698
#        123178
#        125011
#        136005
#        147490
#        158442
#        172502
#        187214
#        201640
#        219012
#        221971
#        236743
#        249175
#        253680
#        267220
#        278404
#
# Disc length: 3877 seconds
#
# Revision: 4
# Processed by: cddbd v1.5.2PL0 Copyright (c) Steve Scherf et al.
# Submitted via: ExactAudioCopyFreeDBPlugin 1.0
#
DISCID=750f231a
DTITLE=JOHNNY CASH - 1965 - Johnny Cash - Ballads of the True West
DYEAR=1965
DGENRE=Country
TTITLE0=Hiawatha's vision
TTITLE1=The road to Kaintuck
TTITLE2=The shifting, whispering sands [part 1]
TTITLE3=The ballad of boot hill [narration]
TTITLE4=The ballad of Boot Hill
TTITLE5=I ride an old paint
TTITLE6=Hardin wouldn't run [narration]
TTITLE7=Hardin wouldn't run
TTITLE8=Mister Garfield [narration]
TTITLE9=Mister Garfield
TTITLE10=The streets of Laredo
TTITLE11=Johnny Reb [narration]
TTITLE12=Johnny Reb
TTITLE13=A letter from home
TTITLE14=Bury me not on the lone prairie
TTITLE15=Mean as hell [narration]
TTITLE16=Sam Hall
TTITLE17=25 Minutes to go
TTITLE18=The blizzard
TTITLE19=Sweet Betsy from Pike [narration]
TTITLE20=Sweet Betsy from Pike
TTITLE21=Green grow the lilacs
TTITLE22=Stampede [narration]
TTITLE23=Stampede
TTITLE24=The shifting, whispering sands [part 2]
TTITLE25=Reflections [narration]
EXTD=
EXTT0=
EXTT1=
EXTT2=
EXTT3=
EXTT4=
EXTT5=
EXTT6=
EXTT7=
EXTT8=
EXTT9=
EXTT10=
EXTT11=
EXTT12=
EXTT13=
EXTT14=
EXTT15=
EXTT16=
EXTT17=
EXTT18=
EXTT19=
EXTT20=
EXTT21=
EXTT22=
EXTT23=
EXTT24=
EXTT25=
PLAYORDER=
